#!OML:ASF F:\VICON\USERDATA\INSTALL\Justin_Nancy\Justin_Nancy.ASF
:FULLY-SPECIFIED
:DEGREES
146
root -9.80151 17.3471 13.0489 -0.686014 -48.3449 9.08058
lowerback 7.82651 -1.32478 -5.42011
upperback -0.476695 -2.19517 1.70587
thorax -4.62379 -0.934674 5.09099
lowerneck -19.1851 -3.35219 -10.3355
upperneck 15.4652 -3.25587 7.90646
head 8.2565 -1.3625 3.95329
rclavicle 1.35174e-014 2.06736e-014
rhumerus -60.0526 7.85153 -93.7294
rradius 105.433
rwrist -7.05597
rhand -8.4815 24.249
rfingers 7.12502
rthumb 17.4455 -4.98816
lclavicle 1.35174e-014 2.06736e-014
lhumerus -34.7854 -2.18466 88.8532
lradius 109.81
lwrist 27.0649
lhand -16.5999 7.70764
lfingers 7.12502
lthumb 9.6214 37.4679
rfemur -36.934 -2.28648 18.9337
rtibia 69.1953
rfoot -7.4126 -3.50572
rtoes -2.32504
lfemur -2.4233 -2.11929 -29.7487
ltibia 36.8234
lfoot -3.62 -7.41731
ltoes -30.5648
147
root -10.0837 17.4388 13.3443 -1.03228 -49.2267 9.01875
lowerback 7.4267 -1.25347 -5.11753
upperback -0.190601 -2.05274 1.58914
thorax -4.13047 -0.896282 4.75854
lowerneck -19.5764 -3.3111 -10.327
upperneck 15.7816 -3.19006 7.97343
head 8.42542 -1.31936 3.98922
rclavicle -1.88845e-014 8.74653e-015
rhumerus -60.5008 7.50808 -93.6754
rradius 105.797
rwrist -6.98071
rhand -7.94301 24.6735
rfingers 7.12502
rthumb 17.9637 -4.51687
lclavicle -1.88845e-014 8.74653e-015
lhumerus -34.7856 -2.19536 88.6941
lradius 110.094
lwrist 27.0837
lhand -16.0728 7.48941
lfingers 7.12502
lthumb 10.1299 37.2256
rfemur -36.3513 -0.969855 19.149
rtibia 65.4308
rfoot -7.32889 -4.18023
rtoes -2.44812
lfemur -0.335827 -1.81231 -29.7519
ltibia 35.0937
lfoot 0.531616 -8.45319
ltoes -30.5983
148
root -10.3698 17.5491 13.6422 -0.849286 -50.0218 8.58963
lowerback 6.74372 -1.20744 -4.50704
upperback 0.0728671 -1.90743 1.53889
thorax -3.5092 -0.861596 4.3156
lowerneck -19.6987 -3.33528 -10.6209
upperneck 15.7885 -3.1884 8.28039
head 8.4593 -1.30278 4.14527
rclavicle -4.77083e-015 -3.97569e-015
rhumerus -60.7027 7.08319 -93.5562
rradius 106.181
rwrist -6.81209
rhand -8.27431 24.2019
rfingers 7.12502
rthumb 17.6449 -5.01749
lclavicle -4.77083e-015 -3.97569e-015
lhumerus -34.6177 -2.65631 88.4991
lradius 110.312
lwrist 27.234
lhand -16.1934 7.66683
lfingers 7.12502
lthumb 10.0136 37.4086
rfemur -35.8006 -0.0101329 19.6378
rtibia 61.3647
rfoot -7.69976 -3.88129
rtoes -5.34635
lfemur 1.39063 -2.08347 -29.5136
ltibia 33.2806
lfoot 5.82516 -8.44751
ltoes -27.4636
149
root -10.6565 17.6347 13.9277 -0.594261 -50.6899 8.41183
lowerback 6.14564 -1.23096 -4.34874
upperback 0.060399 -1.90052 1.5609
thorax -3.19119 -0.869344 4.22841
lowerneck -19.5554 -3.35449 -10.6031
upperneck 15.6223 -3.2335 8.31159
head 8.38322 -1.32119 4.14398
rclavicle 1.68967e-014 1.35174e-014
rhumerus -61.1619 6.80841 -93.3606
rradius 106.532
rwrist -6.25901
rhand -8.7839 23.6493
rfingers 7.12502
rthumb 17.1544 -5.61347
lclavicle 1.68967e-014 1.35174e-014
lhumerus -34.7478 -2.9836 88.3761
lradius 110.441
lwrist 27.0097
lhand -16.4666 7.57459
lfingers 7.12502
lthumb 9.74996 37.3289
rfemur -35.5586 0.642712 20.0255
rtibia 57.1443
rfoot -7.64914 -3.57019
rtoes -8.73655
lfemur 2.73043 -2.29604 -29.3743
ltibia 31.5556
lfoot 10.7601 -7.97491
ltoes -24.2511
150
root -10.9372 17.6941 14.2159 -0.0775083 -50.9042 8.19303
lowerback 5.50458 -1.43675 -4.17992
upperback -0.1746 -2.13518 1.69351
thorax -3.05134 -0.987022 4.27203
lowerneck -20.0794 -3.33858 -9.87415
upperneck 16.2685 -3.21105 7.39155
head 8.66236 -1.3565 3.71706
rclavicle 5.06901e-014 1.51076e-014
rhumerus -61.8855 6.72477 -92.9772
rradius 106.943
rwrist -6.03819
rhand -8.13424 23.589
rfingers 7.12502
rthumb 17.7797 -5.61819
lclavicle 5.06901e-014 1.51076e-014
lhumerus -35.3308 -2.99422 88.4099
lradius 110.748
lwrist 26.8677
lhand -16.0138 7.09265
lfingers 7.12502
lthumb 10.1869 36.826
rfemur -35.5471 1.112 20.3542
rtibia 52.9466
rfoot -7.18987 -3.92813
rtoes -10.9871
lfemur 3.79554 -2.8451 -29.2353
ltibia 29.8858
lfoot 15.296 -8.10763
ltoes -23.3384
151
root -11.2229 17.7483 14.4965 0.0125096 -51.0695 8.36816
lowerback 5.03388 -1.60769 -4.36415
upperback -0.418892 -2.35468 1.81085
thorax -3.00533 -1.08907 4.50176
lowerneck -21.4337 -3.19485 -8.87252
upperneck 17.8685 -2.93082 5.91033
head 9.38619 -1.31575 3.09469
rclavicle 3.08116e-014 2.70347e-014
rhumerus -62.6575 6.75603 -92.6104
rradius 107.446
rwrist -6.00378
rhand -7.57462 23.7317
rfingers 7.12502
rthumb 18.3181 -5.42576
lclavicle 3.08116e-014 2.70347e-014
lhumerus -35.9945 -3.04524 88.5157
lradius 111.124
lwrist 26.7087
lhand -14.9308 7.28518
lfingers 7.12502
lthumb 11.2315 36.9645
rfemur -35.3166 1.5673 20.3716
rtibia 48.8338
rfoot -6.73441 -4.25474
rtoes -12.7844
lfemur 4.9069 -3.60919 -29.4149
ltibia 28.3466
lfoot 19.373 -8.49549
ltoes -21.8399
152
root -11.5141 17.8031 14.7798 -0.363974 -51.1814 9.09531
lowerback 4.51422 -1.83828 -4.87544
upperback -0.630305 -2.67193 1.80994
thorax -2.87549 -1.23836 4.79333
lowerneck -21.9914 -2.98237 -8.74476
upperneck 18.7063 -2.55065 5.45724
head 9.74106 -1.18608 2.98022
rclavicle 4.87022e-015 1.43125e-014
rhumerus -63.4441 7.0663 -92.6996
rradius 107.979
rwrist -5.86448
rhand -8.74842 23.5644
rfingers 7.12502
rthumb 17.1886 -5.69533
lclavicle 4.87022e-015 1.43125e-014
lhumerus -36.5603 -3.25507 88.4436
lradius 111.435
lwrist 26.4803
lhand -13.5387 7.21729
lfingers 7.12502
lthumb 12.5739 36.8189
rfemur -34.9763 1.69326 19.9991
rtibia 44.7921
rfoot -6.15681 -4.03662
rtoes -13.7393
lfemur 5.95968 -4.52669 -30.0437
ltibia 27.105
lfoot 22.4493 -9.19201
ltoes -19.1907
153
root -11.8027 17.8518 15.0638 -0.518838 -51.2341 9.66092
lowerback 4.00615 -2.00401 -5.23113
upperback -0.864156 -2.89213 1.77179
thorax -2.79159 -1.34013 4.94997
lowerneck -21.832 -2.93496 -8.82984
upperneck 18.7248 -2.44018 5.31599
head 9.71009 -1.16061 2.96041
rclavicle -3.17062e-014 3.18055e-015
rhumerus -64.0873 7.04555 -92.7612
rradius 108.552
rwrist -6.13693
rhand -10.0105 23.4976
rfingers 7.12502
rthumb 15.9735 -5.86383
lclavicle -3.17062e-014 3.18055e-015
lhumerus -36.9707 -3.77078 88.3875
lradius 111.634
lwrist 26.0182
lhand -12.9166 7.31099
lfingers 7.12502
lthumb 13.1736 36.8748
rfemur -34.688 1.67891 19.7516
rtibia 40.7524
rfoot -5.40557 -3.53688
rtoes -13.2112
lfemur 6.70695 -5.33403 -30.5401
ltibia 26.3283
lfoot 24.601 -10.4276
ltoes -15.9496
154
root -12.0796 17.8926 15.3452 -0.435781 -51.3042 9.68586
lowerback 3.82403 -1.99791 -5.07263
upperback -0.984875 -2.87158 1.67047
thorax -2.82921 -1.32938 4.74876
lowerneck -21.7591 -3.15701 -8.50397
upperneck 18.5389 -2.77875 4.99176
head 9.64833 -1.3297 2.73894
rclavicle 1.02871e-013 7.15625e-015
rhumerus -64.3589 6.39671 -92.6465
rradius 109.248
rwrist -6.9542
rhand -10.2649 23.0013
rfingers 7.12502
rthumb 15.7285 -6.37956
lclavicle 1.02871e-013 7.15625e-015
lhumerus -37.2705 -4.82719 88.3705
lradius 111.82
lwrist 25.7983
lhand -13.2592 7.41198
lfingers 7.12502
lthumb 12.8433 36.9968
rfemur -34.1201 1.62024 19.9467
rtibia 36.7296
rfoot -4.43412 -3.52955
rtoes -13.2252
lfemur 7.33803 -5.94507 -30.6738
ltibia 26.1183
lfoot 26.1383 -11.9706
ltoes -12.7814
155
root -12.3448 17.9217 15.6209 -0.206087 -51.4815 9.36199
lowerback 3.91141 -2.11378 -4.77617
upperback -1.11972 -3.01424 1.79741
thorax -3.00916 -1.39651 4.72951
lowerneck -21.8146 -3.21898 -8.50692
upperneck 18.4874 -2.80406 4.76841
head 9.63908 -1.3663 2.6555
rclavicle 3.58806e-014 -1.11319e-014
rhumerus -64.716 6.40472 -92.3328
rradius 109.988
rwrist -7.47975
rhand -10.1357 22.4194
rfingers 7.12502
rthumb 15.853 -6.95162
lclavicle 3.58806e-014 -1.11319e-014
lhumerus -37.5887 -5.25048 88.4573
lradius 112.006
lwrist 25.6023
lhand -13.9976 7.60249
lfingers 7.12502
lthumb 12.1314 37.2308
rfemur -33.3326 1.79971 20.3146
rtibia 32.8092
rfoot -3.17438 -4.07644
rtoes -13.8577
lfemur 7.825 -6.42152 -30.5761
ltibia 26.4373
lfoot 27.2484 -12.8558
ltoes -8.97602
156
root -12.6115 17.9368 15.8823 0.0241067 -51.517 9.182
lowerback 4.01027 -2.37854 -4.88174
upperback -1.34779 -3.37269 2.11661
thorax -3.23597 -1.55882 5.15426
lowerneck -21.9586 -3.10453 -8.91123
upperneck 18.6483 -2.48363 4.68281
head 9.7036 -1.25853 2.74011
rclavicle -3.53837e-014 -1.98785e-014
rhumerus -65.3392 7.13845 -91.8121
rradius 110.872
rwrist -7.37737
rhand -9.7285 22.1119
rfingers 7.12502
rthumb 16.2451 -7.22751
lclavicle -3.53837e-014 -1.98785e-014
lhumerus -38.0147 -5.22951 88.7325
lradius 112.205
lwrist 24.9796
lhand -14.4008 7.4855
lfingers 7.12502
lthumb 11.7427 37.1364
rfemur -32.6923 1.85321 20.637
rtibia 29.2297
rfoot -1.75535 -4.51277
rtoes -13.3552
lfemur 8.11428 -6.98533 -30.5379
ltibia 27.0365
lfoot 27.8296 -13.2484
ltoes -0.306543
157
root -12.8797 17.9326 16.1457 -0.35256 -51.4119 9.66369
lowerback 3.95287 -2.42538 -5.06723
upperback -1.37872 -3.44884 1.91145
thorax -3.22844 -1.59409 5.04633
lowerneck -22.131 -3.24396 -8.90093
upperneck 18.61 -2.69447 4.82495
head 9.73823 -1.33546 2.75681
rclavicle 7.7526e-015 -8.74653e-015
rhumerus -65.4122 6.68575 -91.6283
rradius 111.417
rwrist -6.7968
rhand -9.60908 22.3282
rfingers 7.12502
rthumb 16.3601 -7.00178
lclavicle 7.7526e-015 -8.74653e-015
lhumerus -38.0796 -6.23449 88.7705
lradius 112.345
lwrist 24.6158
lhand -14.8321 7.61213
lfingers 7.12502
lthumb 11.3267 37.2863
rfemur -32.0732 1.28693 20.6995
rtibia 26.1659
rfoot -0.569666 -4.20098
rtoes -12.4078
lfemur 8.44512 -7.46357 -30.9136
ltibia 27.8674
lfoot 27.9738 -12.6415
ltoes 4.60066
158
root -13.1515 17.9176 16.4202 -1.19661 -51.4499 10.5158
lowerback 3.84726 -2.39354 -5.34313
upperback -1.27921 -3.42365 1.55929
thorax -3.07444 -1.5861 4.82347
lowerneck -22.3269 -3.43327 -8.79233
upperneck 18.5753 -2.99724 4.9338
head 9.78338 -1.45122 2.73139
rclavicle 1.81888e-014 0
rhumerus -65.2317 6.03134 -91.6339
rradius 111.736
rwrist -6.23972
rhand -9.83911 22.821
rfingers 7.12502
rthumb 16.1386 -6.52704
lclavicle 1.81888e-014 0
lhumerus -38.0468 -7.36514 88.7409
lradius 112.412
lwrist 24.4959
lhand -15.2465 7.6028
lfingers 7.12502
lthumb 10.927 37.2985
rfemur -31.3683 0.195304 20.703
rtibia 23.7223
rfoot 0.324368 -3.15959
rtoes -13.3627
lfemur 8.91155 -7.87215 -31.6258
ltibia 28.9533
lfoot 27.4703 -11.3829
ltoes 7.06935
